<svg width="30" height="30" viewBox="0 0 30 30" fill="none" xmlns="http://www.w3.org/2000/svg">
<mask id="mask0_7644_1148" style="mask-type:alpha" maskUnits="userSpaceOnUse" x="0" y="0" width="30" height="30">
<circle cx="15" cy="15" r="15" fill="#C4C4C4"/>
</mask>
<g mask="url(#mask0_7644_1148)">
<path d="M19.0856 21.911L14.9997 25.3517L10.914 21.911C8.79858 20.1297 7.57764 17.5052 7.57764 14.7398V13.6325C7.57759 9.53345 10.9006 6.21045 14.9997 6.21045C19.0989 6.21045 22.4218 9.53345 22.4218 13.6325V14.7398C22.4219 17.5053 21.2009 20.1297 19.0856 21.911Z" fill="url(#paint0_linear_7644_1148)"/>
<path d="M22.6928 24.0751L18.5756 22.8642C18.0769 22.7175 17.7344 22.2598 17.7344 21.7399V19.8823H12.2654V21.7399C12.2654 22.2598 11.9229 22.7175 11.4241 22.8642L7.307 24.0751C6.30951 24.3685 5.62451 25.2839 5.62451 26.3237V29.2576C5.62451 29.9048 6.14921 30.4295 6.79643 30.4295H23.2032C23.8504 30.4295 24.3751 29.9048 24.3751 29.2576V26.3237C24.3752 25.2839 23.6902 24.3685 22.6928 24.0751Z" fill="url(#paint1_linear_7644_1148)"/>
<path d="M22.6928 24.0755L18.5756 22.8646C18.506 22.8442 18.4403 22.8163 18.3773 22.7844L14.9998 25.3517L11.6226 22.7844C11.5596 22.8163 11.4939 22.8442 11.4243 22.8646L7.307 24.0755C6.30951 24.3689 5.62451 25.2844 5.62451 26.3241V29.2581C5.62451 29.9053 6.14921 30.43 6.79643 30.43H23.2032C23.8504 30.43 24.3751 29.9053 24.3751 29.2581V26.3241C24.3752 25.2844 23.6902 24.3689 22.6928 24.0755Z" fill="url(#paint2_linear_7644_1148)"/>
<path d="M12.2651 20.7541C13.0858 21.1924 14.0165 21.4449 14.9996 21.4449C15.9827 21.4449 16.9134 21.1924 17.7341 20.7541V19.8823H12.2651V20.7541Z" fill="url(#paint3_linear_7644_1148)"/>
<path d="M20.2733 14.0233H20.078V9.72632H9.92138V14.0233H9.72608C9.18673 14.0233 8.74951 14.4606 8.74951 14.9999C8.74951 15.5393 9.18673 15.9765 9.72608 15.9765H9.94114C10.1412 18.598 12.3269 20.6642 14.9997 20.6642C17.6725 20.6642 19.8581 18.598 20.0582 15.9765H20.2733C20.8126 15.9765 21.2499 15.5392 21.2499 14.9999C21.25 14.4606 20.8126 14.0233 20.2733 14.0233Z" fill="url(#paint4_linear_7644_1148)"/>
<path d="M20.078 9.72632H9.92139V14.0233H9.78185C9.271 14.0233 8.80547 14.3909 8.75457 14.8992C8.69602 15.4838 9.15348 15.9765 9.7261 15.9765H9.94115C10.1412 18.5981 12.3269 20.6642 14.9997 20.6642C15.2669 20.6642 15.5275 20.6382 15.7834 20.5984C13.3495 20.2228 11.4839 18.125 11.4839 15.5859V12.7795C11.4839 12.2703 11.9609 11.9017 12.4553 12.0235C13.0888 12.1796 13.7517 12.3105 14.4325 12.4001C14.4794 12.4063 14.5257 12.4092 14.5711 12.4092C14.9208 12.4092 15.2472 12.2351 15.4443 11.9434C15.5918 11.725 15.6512 11.4636 15.6172 11.209C16.7987 11.5163 18.5757 12.1891 20.0779 13.5859V9.72632H20.078Z" fill="url(#paint5_linear_7644_1148)"/>
<path d="M12.6558 15.2293C12.4399 15.2293 12.2651 15.0544 12.2651 14.8387V14.448C12.2651 14.2323 12.4399 14.0574 12.6558 14.0574C12.8717 14.0574 13.0464 14.2323 13.0464 14.448V14.8387C13.0464 15.0544 12.8717 15.2293 12.6558 15.2293Z" fill="url(#paint6_radial_7644_1148)"/>
<path d="M17.3433 15.2293C17.1274 15.2293 16.9526 15.0544 16.9526 14.8387V14.448C16.9526 14.2323 17.1274 14.0574 17.3433 14.0574C17.5592 14.0574 17.7339 14.2323 17.7339 14.448V14.8387C17.7339 15.0544 17.5592 15.2293 17.3433 15.2293Z" fill="url(#paint7_radial_7644_1148)"/>
<path d="M13.0464 13.6324H12.2652C12.0492 13.6324 11.8745 13.4574 11.8745 13.2417C11.8745 13.026 12.0492 12.8511 12.2652 12.8511H13.0464C13.2623 12.8511 13.4371 13.026 13.4371 13.2417C13.4371 13.4574 13.2623 13.6324 13.0464 13.6324Z" fill="url(#paint8_linear_7644_1148)"/>
<path d="M17.7339 13.6324H16.9527C16.7367 13.6324 16.562 13.4574 16.562 13.2417C16.562 13.026 16.7367 12.8511 16.9527 12.8511H17.7339C17.9498 12.8511 18.1246 13.026 18.1246 13.2417C18.1246 13.4574 17.9499 13.6324 17.7339 13.6324Z" fill="url(#paint9_linear_7644_1148)"/>
<path d="M14.9995 17.9296C14.4136 17.9296 13.8727 17.7416 13.5534 17.4265C13.3996 17.275 13.3981 17.0276 13.5496 16.8741C13.701 16.7206 13.949 16.7188 14.1019 16.8703C14.232 16.9987 14.5452 17.1484 14.9996 17.1484C15.4539 17.1484 15.7671 16.9987 15.8972 16.8703C16.0502 16.7188 16.2982 16.7206 16.4496 16.8741C16.6011 17.0276 16.5995 17.275 16.4458 17.4265C16.1264 17.7416 15.5855 17.9296 14.9995 17.9296Z" fill="#B67F5F"/>
<path d="M9.14014 14.2072L10.0127 14.1045C10.4062 14.0582 10.7027 13.7248 10.7027 13.3285V9.72632H9.14014V14.2072V14.2072Z" fill="url(#paint10_linear_7644_1148)"/>
<path d="M20.8594 14.2072L19.9869 14.1045C19.5934 14.0582 19.2969 13.7248 19.2969 13.3285V9.72632H20.8594V14.2072V14.2072Z" fill="url(#paint11_linear_7644_1148)"/>
<path d="M21.4147 9.91107C20.1293 7.70057 17.7412 6.21045 14.9999 6.21045C12.3214 6.21045 9.98143 7.63409 8.67627 9.76115V9.87564C9.93514 10.4473 12.136 11.3095 14.5348 11.6254C14.7437 11.6529 14.904 11.4407 14.8253 11.2452L14.5768 10.6271C14.4954 10.4249 14.6671 10.2132 14.8819 10.2502C15.9784 10.439 18.7222 11.1046 20.8595 13.2419L21.4147 9.91107Z" fill="url(#paint12_linear_7644_1148)"/>
<path d="M14.9999 6.21045C12.3214 6.21045 9.98143 7.63409 8.67627 9.76114V9.87564C8.97154 10.0097 9.32267 10.1604 9.71206 10.3156C10.8192 8.55702 12.7727 7.38237 14.9999 7.38237C17.9147 7.38237 20.3627 9.39079 21.0507 12.0945L21.4147 9.91107C20.1293 7.70057 17.7412 6.21045 14.9999 6.21045Z" fill="url(#paint13_linear_7644_1148)"/>
<path d="M14.9998 5.81934C10.6917 5.81934 7.18701 9.32423 7.18701 13.6321V14.7394C7.18701 17.6266 8.45391 20.3493 10.6623 22.2096L14.6092 25.5333V30.4296H15.3904V25.5332L19.3372 22.2096V22.2094C21.5456 20.3493 22.8126 17.6266 22.8126 14.7393V13.6321C22.8126 9.32423 19.3079 5.81934 14.9998 5.81934ZM22.0313 14.7393C22.0313 17.3956 20.8659 19.9004 18.8337 21.6117L14.9998 24.8406L11.1659 21.6119C9.13372 19.9004 7.96829 17.3956 7.96829 14.7393V13.6321C7.96829 9.7549 11.1228 6.60061 14.9998 6.60061C18.8768 6.60061 22.0313 9.7549 22.0313 13.6321V14.7393Z" fill="url(#paint14_linear_7644_1148)"/>
<path d="M14.9995 25.3521C14.5698 25.3521 14.2183 25.7036 14.2183 26.1333V26.9146C14.2183 27.3443 14.5698 27.6959 14.9995 27.6959C15.4293 27.6959 15.7808 27.3443 15.7808 26.9146V26.1333C15.7808 25.7036 15.4293 25.3521 14.9995 25.3521Z" fill="url(#paint15_linear_7644_1148)"/>
<path d="M8.8749 26.9374L6.31698 24.6636C6.12995 24.8497 5.97806 25.0672 5.86279 25.3051L8.35612 27.5214C8.60597 27.7436 8.74945 28.0628 8.74945 28.3973V30.4301H9.53072V28.3973C9.53068 27.8398 9.29188 27.3076 8.8749 26.9374Z" fill="url(#paint16_linear_7644_1148)"/>
<path d="M21.124 26.9374L23.682 24.6636C23.869 24.8497 24.0209 25.0672 24.1361 25.3051L21.6429 27.5214C21.393 27.7436 21.2495 28.0628 21.2495 28.3973V30.4301H20.4683V28.3973C20.4683 27.8398 20.7071 27.3076 21.124 26.9374Z" fill="url(#paint17_linear_7644_1148)"/>
</g>
<defs>
<linearGradient id="paint0_linear_7644_1148" x1="14.9997" y1="6.21045" x2="14.9997" y2="25.3517" gradientUnits="userSpaceOnUse">
<stop stop-color="#78A8EB"/>
<stop offset="1" stop-color="#99BBEB"/>
</linearGradient>
<linearGradient id="paint1_linear_7644_1148" x1="12.5001" y1="21.562" x2="15.3419" y2="25.245" gradientUnits="userSpaceOnUse">
<stop stop-color="#E6AC82"/>
<stop offset="1" stop-color="#F2CBAF"/>
</linearGradient>
<linearGradient id="paint2_linear_7644_1148" x1="14.9998" y1="22.7844" x2="14.9998" y2="30.43" gradientUnits="userSpaceOnUse">
<stop stop-color="#78A8EB"/>
<stop offset="1" stop-color="#99BBEB"/>
</linearGradient>
<linearGradient id="paint3_linear_7644_1148" x1="12.4991" y1="20.6636" x2="14.7509" y2="23.6201" gradientUnits="userSpaceOnUse">
<stop stop-color="#E6A470"/>
<stop offset="1" stop-color="#E6A370" stop-opacity="0"/>
</linearGradient>
<linearGradient id="paint4_linear_7644_1148" x1="11.5617" y1="11.8326" x2="19.0143" y2="19.1042" gradientUnits="userSpaceOnUse">
<stop stop-color="#F3B68A"/>
<stop offset="1" stop-color="#FED5B8"/>
</linearGradient>
<linearGradient id="paint5_linear_7644_1148" x1="10.4437" y1="9.88805" x2="14.1082" y2="20.7671" gradientUnits="userSpaceOnUse">
<stop stop-color="#EBA873"/>
<stop offset="1" stop-color="#EBA773" stop-opacity="0"/>
</linearGradient>
<radialGradient id="paint6_radial_7644_1148" cx="0" cy="0" r="1" gradientUnits="userSpaceOnUse" gradientTransform="translate(12.5002 14.4079) rotate(71.565) scale(0.988186 0.658792)">
<stop stop-color="#040404"/>
<stop offset="1" stop-color="#767676"/>
</radialGradient>
<radialGradient id="paint7_radial_7644_1148" cx="0" cy="0" r="1" gradientUnits="userSpaceOnUse" gradientTransform="translate(17.1877 14.4079) rotate(71.565) scale(0.988186 0.658791)">
<stop stop-color="#040404"/>
<stop offset="1" stop-color="#767676"/>
</radialGradient>
<linearGradient id="paint8_linear_7644_1148" x1="12.1874" y1="12.8122" x2="12.6558" y2="13.6324" gradientUnits="userSpaceOnUse">
<stop stop-color="#6E5A64"/>
<stop offset="1" stop-color="#6E5A64" stop-opacity="0.86"/>
</linearGradient>
<linearGradient id="paint9_linear_7644_1148" x1="16.8749" y1="12.8122" x2="17.3433" y2="13.6324" gradientUnits="userSpaceOnUse">
<stop stop-color="#6E5A64"/>
<stop offset="1" stop-color="#6E5A64" stop-opacity="0.86"/>
</linearGradient>
<linearGradient id="paint10_linear_7644_1148" x1="9.68751" y1="10.3126" x2="9.59849" y2="14.357" gradientUnits="userSpaceOnUse">
<stop stop-color="#473A41"/>
<stop offset="1" stop-color="#6E5A64"/>
</linearGradient>
<linearGradient id="paint11_linear_7644_1148" x1="19.8442" y1="10.3126" x2="19.7552" y2="14.357" gradientUnits="userSpaceOnUse">
<stop stop-color="#473A41"/>
<stop offset="1" stop-color="#6E5A64"/>
</linearGradient>
<linearGradient id="paint12_linear_7644_1148" x1="10.9377" y1="8.43747" x2="19.7905" y2="14.0101" gradientUnits="userSpaceOnUse">
<stop stop-color="#473A41"/>
<stop offset="1" stop-color="#6E5A64"/>
</linearGradient>
<linearGradient id="paint13_linear_7644_1148" x1="15.0002" y1="6.87497" x2="17.5002" y2="11.5625" gradientUnits="userSpaceOnUse">
<stop stop-color="#64505A"/>
<stop offset="1" stop-color="#64505A" stop-opacity="0"/>
</linearGradient>
<linearGradient id="paint14_linear_7644_1148" x1="14.9998" y1="5.81934" x2="14.9998" y2="30.4296" gradientUnits="userSpaceOnUse">
<stop stop-color="#A5CDFF"/>
<stop offset="0.600905" stop-color="#BDDAFF"/>
</linearGradient>
<linearGradient id="paint15_linear_7644_1148" x1="14.9995" y1="25.3521" x2="14.9995" y2="27.6959" gradientUnits="userSpaceOnUse">
<stop stop-color="#473A41"/>
<stop offset="1" stop-color="#6E5A64"/>
</linearGradient>
<linearGradient id="paint16_linear_7644_1148" x1="7.69676" y1="24.6636" x2="7.69676" y2="30.4301" gradientUnits="userSpaceOnUse">
<stop offset="0.21875" stop-color="#A5CDFF"/>
<stop offset="1" stop-color="#D9EAFF"/>
</linearGradient>
<linearGradient id="paint17_linear_7644_1148" x1="22.3022" y1="24.6636" x2="22.3022" y2="30.4301" gradientUnits="userSpaceOnUse">
<stop offset="0.21875" stop-color="#A5CDFF"/>
<stop offset="1" stop-color="#D9EAFF"/>
</linearGradient>
</defs>
</svg>
