<svg width="30" height="30" viewBox="0 0 30 30" fill="none" xmlns="http://www.w3.org/2000/svg">
<mask id="mask0_7644_1058" style="mask-type:alpha" maskUnits="userSpaceOnUse" x="0" y="0" width="30" height="30">
<circle cx="15" cy="15" r="15" fill="#C4C4C4"/>
</mask>
<g mask="url(#mask0_7644_1058)">
<path d="M9.35141 15.0007H20.6491L21.1313 11.8667C21.6044 8.7907 19.2245 6.0166 16.1123 6.0166H13.8881C10.7759 6.0166 8.39598 8.7907 8.86922 11.8667L9.35141 15.0007Z" fill="url(#paint0_linear_7644_1058)"/>
<path d="M22.6925 23.4891L18.5756 22.2782C18.0769 22.1315 17.7344 21.6738 17.7344 21.154V19.2965H12.2659V21.154C12.2659 21.6738 11.9235 22.1315 11.4247 22.2782L7.30788 23.4891C6.31045 23.7824 5.62549 24.6978 5.62549 25.7375V29.0618C5.62549 29.709 6.15015 30.2337 6.79732 30.2337H23.2031C23.8502 30.2337 24.3749 29.709 24.3749 29.0618V25.7375C24.3749 24.6978 23.69 23.7824 22.6925 23.4891Z" fill="url(#paint1_linear_7644_1058)"/>
<path d="M22.6925 23.4891L18.5756 22.2782C18.506 22.2578 18.9693 22.4534 18.9063 22.4215L14.9999 23.5933L11.094 22.4215C11.031 22.4534 11.4942 22.2578 11.4246 22.2782L7.30788 23.4891C6.31045 23.7825 5.62549 24.6979 5.62549 25.7375V29.0619C5.62549 29.7091 6.15015 30.2337 6.79732 30.2337H23.2031C23.8502 30.2337 24.3749 29.7091 24.3749 29.0619V25.7375C24.3749 24.6979 23.69 23.7825 22.6925 23.4891Z" fill="url(#paint2_linear_7644_1058)"/>
<path d="M18.7724 23.0692L18.3067 22.6034L15.0004 23.2032L11.694 22.6034L11.2283 23.0692C10.6422 23.6552 10.313 24.45 10.313 25.2788V30.2342H19.6877V25.2788C19.6877 24.45 19.3585 23.6552 18.7724 23.0692Z" fill="url(#paint3_linear_7644_1058)"/>
<path d="M18.7725 23.0692L18.3067 22.6034L15.0004 23.2032L11.6941 22.6034L11.2283 23.0692C11.0366 23.2609 10.8754 23.4767 10.7412 23.707L12.1845 25.3565C12.407 25.6108 12.7285 25.7567 13.0665 25.7567C13.3794 25.7567 13.6737 25.6348 13.895 25.4134L15.0004 24.308L16.1058 25.4134C16.3271 25.6348 16.6214 25.7567 16.9343 25.7567C17.2724 25.7567 17.5939 25.6108 17.8164 25.3564L19.2597 23.707C19.1254 23.4767 18.9643 23.2609 18.7725 23.0692Z" fill="url(#paint4_linear_7644_1058)"/>
<path d="M14.4362 25.1556L13.8286 30.2336H16.1722L15.5646 25.1556H14.4362Z" fill="url(#paint5_linear_7644_1058)"/>
<path d="M15.5001 25.5467H14.5007C14.3326 25.5467 14.1834 25.4391 14.1302 25.2796L13.438 23.203H16.5629L15.8707 25.2796C15.8175 25.4391 15.6683 25.5467 15.5001 25.5467Z" fill="url(#paint6_linear_7644_1058)"/>
<path d="M12.2661 20.1682C13.0867 20.6065 14.0174 20.8589 15.0004 20.8589C15.9834 20.8589 16.914 20.6065 17.7346 20.1682V19.2965H12.2661V20.1682Z" fill="url(#paint7_linear_7644_1058)"/>
<path d="M12.0049 21.5387L10.9756 22.7884L12.7721 24.8415C12.9209 25.0116 13.1825 25.0203 13.3422 24.8605L15 23.2027L12.0049 21.5387Z" fill="url(#paint8_linear_7644_1058)"/>
<path d="M17.9952 21.5387L19.0245 22.7884L17.228 24.8415C17.0792 25.0116 16.8176 25.0203 16.6578 24.8605L15 23.2027L17.9952 21.5387Z" fill="url(#paint9_linear_7644_1058)"/>
<path d="M8.36012 30.2337L7.67194 27.5275C7.614 27.2667 7.69327 26.9944 7.88214 26.8056L9.14134 25.5464L8.562 24.6773C8.42563 24.4728 8.3964 24.2159 8.47402 23.9826C9.40542 21.1836 12.2662 20.4684 12.2662 20.4684V21.2218C12.2662 21.7398 12.0605 22.2366 11.6942 22.6029L11.2284 23.0686C10.6423 23.6547 10.3131 24.4495 10.3131 25.2783V30.2337" fill="url(#paint10_linear_7644_1058)"/>
<path d="M21.641 30.2338L22.3291 27.5276C22.3871 27.2669 22.3078 26.9945 22.1189 26.8057L20.8597 25.5465L21.4391 24.6775C21.5754 24.4729 21.6047 24.2161 21.5271 23.9827C20.5957 21.1837 17.7349 20.4685 17.7349 20.4685V21.222C17.7349 21.7399 17.9406 22.2367 18.3069 22.603L18.7727 23.0688C19.3587 23.6548 19.688 24.4496 19.688 25.2784V30.2338" fill="url(#paint11_linear_7644_1058)"/>
<path d="M20.2393 13.4374H20.2225C19.7475 13.4374 19.3947 12.9976 19.4978 12.534C19.7957 11.1935 18.7756 9.92188 17.4024 9.92188H12.5982C11.225 9.92188 10.205 11.1935 10.5028 12.534C10.6058 12.9976 10.2531 13.4374 9.77811 13.4374H9.76127C9.31655 13.4374 8.9012 13.7192 8.78598 14.1487C8.61172 14.7983 9.1036 15.3904 9.72703 15.3904H9.94206C10.1421 18.0118 12.3277 20.0778 15.0003 20.0778C17.6729 20.0778 19.8585 18.0118 20.0586 15.3904H20.2736C20.897 15.3904 21.3889 14.7983 21.2146 14.1487C21.0994 13.7192 20.684 13.4374 20.2393 13.4374Z" fill="url(#paint12_linear_7644_1058)"/>
<path d="M11.4847 14.9998V12.6561C11.4847 11.5775 12.3591 10.7031 13.4378 10.7031H16.5627C16.9941 10.7031 17.3439 10.3533 17.3438 9.92188H12.5981C11.2239 9.92188 10.2033 11.1954 10.5035 12.5371C10.6069 12.9995 10.2519 13.4374 9.77807 13.4374H9.76128C9.31655 13.4374 8.90121 13.7192 8.78598 14.1488C8.61172 14.7984 9.10356 15.3905 9.72698 15.3905H9.94201C10.1421 18.0119 12.3276 20.0779 15.0003 20.0779C15.2675 20.0779 15.528 20.0519 15.7839 20.012C13.3501 19.6364 11.4847 17.5388 11.4847 14.9998Z" fill="url(#paint13_linear_7644_1058)"/>
<path d="M16.1125 6.0166H13.8883C13.4616 6.0166 13.0505 6.07317 12.6567 6.17113V6.40721C12.6567 7.91729 13.8809 9.14148 15.391 9.14148H20.8013C20.0418 7.32532 18.25 6.0166 16.1125 6.0166Z" fill="url(#paint14_linear_7644_1058)"/>
<path d="M12.6567 14.6091C12.4408 14.6091 12.2661 14.4344 12.2661 14.2185V13.8279C12.2661 13.6119 12.4408 13.4373 12.6567 13.4373C12.8726 13.4373 13.0473 13.612 13.0473 13.8279V14.2185C13.0474 14.4344 12.8727 14.6091 12.6567 14.6091Z" fill="url(#paint15_radial_7644_1058)"/>
<path d="M17.3442 14.6092C17.1283 14.6092 16.9536 14.4345 16.9536 14.2186V13.828C16.9536 13.6121 17.1283 13.4374 17.3442 13.4374C17.5601 13.4374 17.7348 13.6121 17.7348 13.828V14.2186C17.7348 14.4345 17.5601 14.6092 17.3442 14.6092Z" fill="url(#paint16_radial_7644_1058)"/>
<path d="M15.0005 17.3438C14.4142 17.3438 13.8736 17.1558 13.5543 16.8407C13.4006 16.6889 13.3991 16.4417 13.5505 16.2884C13.7027 16.1346 13.9499 16.1331 14.1028 16.2845C14.2329 16.4127 14.5457 16.5626 15.0004 16.5626C15.4551 16.5626 15.7679 16.4127 15.898 16.2845C16.051 16.1331 16.2982 16.1346 16.4503 16.2884C16.6018 16.4417 16.6002 16.6889 16.4465 16.8407C16.1273 17.1558 15.5868 17.3438 15.0005 17.3438Z" fill="#A06E50"/>
<path d="M13.0473 13.0468H12.2661C12.0502 13.0468 11.8755 12.8721 11.8755 12.6562C11.8755 12.4404 12.0502 12.2656 12.2661 12.2656H13.0473C13.2632 12.2656 13.4379 12.4404 13.4379 12.6562C13.4379 12.8721 13.2632 13.0468 13.0473 13.0468Z" fill="url(#paint17_linear_7644_1058)"/>
<path d="M17.7343 13.047H16.9531C16.7372 13.047 16.5625 12.8722 16.5625 12.6564C16.5625 12.4405 16.7372 12.2657 16.9531 12.2657H17.7343C17.9503 12.2657 18.1249 12.4405 18.1249 12.6564C18.1249 12.8722 17.9503 13.047 17.7343 13.047Z" fill="url(#paint18_linear_7644_1058)"/>
</g>
<defs>
<linearGradient id="paint0_linear_7644_1058" x1="9.68743" y1="8.12552" x2="20.3124" y2="14.688" gradientUnits="userSpaceOnUse">
<stop stop-color="#3B2E34"/>
<stop offset="1" stop-color="#5A4650"/>
</linearGradient>
<linearGradient id="paint1_linear_7644_1058" x1="12.4999" y1="19.9996" x2="17.1874" y2="24.6871" gradientUnits="userSpaceOnUse">
<stop stop-color="#B67F5F"/>
<stop offset="1" stop-color="#D69570"/>
</linearGradient>
<linearGradient id="paint2_linear_7644_1058" x1="14.9999" y1="23.1245" x2="15.0002" y2="30.2337" gradientUnits="userSpaceOnUse">
<stop stop-color="#3B2E34"/>
<stop offset="1" stop-color="#6E5561"/>
</linearGradient>
<linearGradient id="paint3_linear_7644_1058" x1="15.0004" y1="22.6034" x2="15.0004" y2="30.2342" gradientUnits="userSpaceOnUse">
<stop stop-color="#73B4FF"/>
<stop offset="1" stop-color="#ADD3FF"/>
</linearGradient>
<linearGradient id="paint4_linear_7644_1058" x1="11.8751" y1="23.4376" x2="18.1251" y2="25.9376" gradientUnits="userSpaceOnUse">
<stop stop-color="#76A7EB"/>
<stop offset="1" stop-color="#76A7EB"/>
</linearGradient>
<linearGradient id="paint5_linear_7644_1058" x1="15.0004" y1="25.1556" x2="15.0004" y2="30.2336" gradientUnits="userSpaceOnUse">
<stop stop-color="#403239"/>
<stop offset="1" stop-color="#735966"/>
</linearGradient>
<linearGradient id="paint6_linear_7644_1058" x1="15.0005" y1="23.203" x2="15.0005" y2="25.5467" gradientUnits="userSpaceOnUse">
<stop stop-color="#403239"/>
<stop offset="1" stop-color="#735966"/>
</linearGradient>
<linearGradient id="paint7_linear_7644_1058" x1="12.5" y1="19.9996" x2="17.8125" y2="20.6246" gradientUnits="userSpaceOnUse">
<stop stop-color="#A06E50"/>
<stop offset="1" stop-color="#A06E50" stop-opacity="0"/>
</linearGradient>
<linearGradient id="paint8_linear_7644_1058" x1="12.9878" y1="21.5387" x2="13.1248" y2="27.1872" gradientUnits="userSpaceOnUse">
<stop stop-color="#73B4FF"/>
<stop offset="1" stop-color="#ADD3FF"/>
</linearGradient>
<linearGradient id="paint9_linear_7644_1058" x1="17.0122" y1="21.5387" x2="17.1492" y2="27.1872" gradientUnits="userSpaceOnUse">
<stop stop-color="#73B4FF"/>
<stop offset="1" stop-color="#ADD3FF"/>
</linearGradient>
<linearGradient id="paint10_linear_7644_1058" x1="9.95977" y1="20.4684" x2="9.95977" y2="30.2337" gradientUnits="userSpaceOnUse">
<stop stop-color="#473940"/>
<stop offset="1" stop-color="#876C7A"/>
</linearGradient>
<linearGradient id="paint11_linear_7644_1058" x1="20.0413" y1="20.4685" x2="20.0413" y2="30.2338" gradientUnits="userSpaceOnUse">
<stop stop-color="#473940"/>
<stop offset="1" stop-color="#876C7A"/>
</linearGradient>
<linearGradient id="paint12_linear_7644_1058" x1="10.9375" y1="10.6247" x2="20.3125" y2="19.3747" gradientUnits="userSpaceOnUse">
<stop stop-color="#C98E6C"/>
<stop offset="1" stop-color="#EDA87F"/>
</linearGradient>
<linearGradient id="paint13_linear_7644_1058" x1="10.6249" y1="10.9372" x2="14.3749" y2="19.6872" gradientUnits="userSpaceOnUse">
<stop stop-color="#B67F5F"/>
<stop offset="1" stop-color="#B67F5F" stop-opacity="0"/>
</linearGradient>
<linearGradient id="paint14_linear_7644_1058" x1="15.0001" y1="5.93802" x2="16.729" y2="9.14148" gradientUnits="userSpaceOnUse">
<stop stop-color="#64505A"/>
<stop offset="1" stop-color="#64505A" stop-opacity="0"/>
</linearGradient>
<radialGradient id="paint15_radial_7644_1058" cx="0" cy="0" r="1" gradientUnits="userSpaceOnUse" gradientTransform="translate(12.5012 13.7877) rotate(71.5651) scale(0.988113 0.658741)">
<stop stop-color="#040404"/>
<stop offset="1" stop-color="#767676"/>
</radialGradient>
<radialGradient id="paint16_radial_7644_1058" cx="0" cy="0" r="1" gradientUnits="userSpaceOnUse" gradientTransform="translate(17.1887 13.7878) rotate(71.5651) scale(0.988112 0.65874)">
<stop stop-color="#040404"/>
<stop offset="1" stop-color="#767676"/>
</radialGradient>
<linearGradient id="paint17_linear_7644_1058" x1="12.1876" y1="12.1872" x2="12.6567" y2="13.0468" gradientUnits="userSpaceOnUse">
<stop stop-color="#64505A"/>
<stop offset="1" stop-color="#64505A" stop-opacity="0.45"/>
</linearGradient>
<linearGradient id="paint18_linear_7644_1058" x1="16.8746" y1="12.1873" x2="17.3437" y2="13.047" gradientUnits="userSpaceOnUse">
<stop stop-color="#64505A"/>
<stop offset="1" stop-color="#64505A" stop-opacity="0.45"/>
</linearGradient>
</defs>
</svg>
