<svg width="30" height="30" viewBox="0 0 30 30" fill="none" xmlns="http://www.w3.org/2000/svg">
<mask id="mask0_7644_3699" style="mask-type:alpha" maskUnits="userSpaceOnUse" x="0" y="0" width="30" height="30">
<ellipse cx="15" cy="14.9999" rx="15" ry="14.9999" fill="#C4C4C4"/>
</mask>
<g mask="url(#mask0_7644_3699)">
<path d="M25.2251 22.2344C25.2579 19.9659 24.5018 19.5713 24.1237 18.2398C23.743 16.8993 24.1303 15.9839 23.6798 14.5C23.2606 13.1191 22.4991 12.8859 22.2661 10.9245C21.8715 7.60388 18.2878 5.89429 16.5124 5.89429C16.0104 5.89429 15.6676 6.0217 15.4372 6.17411C15.1704 6.35059 14.8296 6.35059 14.563 6.17411C14.3325 6.0217 13.9897 5.89429 13.4877 5.89429C11.7123 5.89429 8.1286 7.60388 7.73407 10.9245C7.50102 12.8858 6.73952 13.1191 6.32034 14.5C5.86986 15.9839 6.25713 16.8993 5.8765 18.2398C5.49841 19.5713 4.74222 19.9659 4.77509 22.2344C4.81321 24.8652 3.29557 25.4564 3.88737 27.1989C4.32905 28.4994 6.71487 29.5661 6.71487 29.5661H23.2853C23.2853 29.5661 25.6711 28.4993 26.1128 27.1989C26.7045 25.4564 25.1869 24.8652 25.2251 22.2344Z" fill="url(#paint0_linear_7644_3699)"/>
<path d="M15.0001 6.30644C14.8482 6.30644 14.6963 6.26235 14.563 6.17411C14.3325 6.0217 13.9897 5.89429 13.4877 5.89429C11.7123 5.89429 8.1286 7.60388 7.73407 10.9245C7.50102 12.8858 6.73952 13.1191 6.32034 14.5C5.86986 15.9839 6.25713 16.8993 5.8765 18.2398C5.49841 19.5713 4.74222 19.9659 4.77509 22.2344C4.81321 24.8652 3.29557 25.4564 3.88737 27.1989C4.32905 28.4994 6.71487 29.5661 6.71487 29.5661H15.0001V6.30644Z" fill="url(#paint1_linear_7644_3699)"/>
<path d="M22.495 25.0637L18.4202 23.6255C17.7892 23.4028 17.3673 22.8065 17.3673 22.1374V20.0977H12.6328V22.1374C12.6328 22.8065 12.2109 23.4028 11.5799 23.6255L7.5051 25.0637C6.55866 25.3977 5.92578 26.2923 5.92578 27.2959V29.1719C5.92578 29.8256 6.45571 30.3555 7.10937 30.3555H22.8907C23.5444 30.3555 24.0743 29.8256 24.0743 29.1719V27.2959C24.0743 26.2923 23.4414 25.3977 22.495 25.0637Z" fill="url(#paint2_linear_7644_3699)"/>
<path d="M22.495 25.0637L19.7761 24.104C18.706 25.583 17.2497 27.214 15.5546 28.1177C15.2088 28.3021 14.7913 28.3021 14.4455 28.1177C12.7503 27.214 11.294 25.583 10.224 24.104L7.5051 25.0637C6.55866 25.3977 5.92578 26.2923 5.92578 27.2959V29.1719C5.92578 29.8255 6.45571 30.3554 7.10937 30.3554H22.8907C23.5444 30.3554 24.0743 29.8255 24.0743 29.1719V27.2959C24.0743 26.2923 23.4414 25.3977 22.495 25.0637Z" fill="url(#paint3_linear_7644_3699)"/>
<path d="M12.6329 21.171C13.3613 21.4931 14.1617 21.6758 15 21.6758C15.8384 21.6758 16.6388 21.4931 17.3672 21.171V20.0977H12.6328L12.6329 21.171Z" fill="url(#paint4_linear_7644_3699)"/>
<path d="M15 20.8862C12.1674 20.8862 9.87109 18.5899 9.87109 15.7573V9.05029H20.129V15.7573C20.129 18.5899 17.8327 20.8862 15 20.8862Z" fill="url(#paint5_linear_7644_3699)"/>
<path d="M9.87109 9.05029V15.7573C9.87109 18.5899 12.1674 20.8862 15 20.8862C15.2691 20.8862 15.5312 20.8592 15.7891 20.8194C13.3321 20.4389 11.4492 18.3209 11.4492 15.7573V13.7056C11.4492 13.3812 11.5498 13.0678 11.7216 12.7926C11.7225 12.7911 11.7234 12.7897 11.7244 12.7882C12.3721 11.7487 12.9786 11.5959 13.6806 11.419C14.0838 11.3174 14.5536 11.199 15 10.9015C15.4464 11.199 15.9162 11.3174 16.3194 11.419C17.0215 11.5959 17.6278 11.7487 18.2756 12.7882C18.8783 13.7552 19.5526 14.2897 20.1289 14.7026V9.05029H9.87109Z" fill="url(#paint6_linear_7644_3699)"/>
<path d="M15 18.5193C14.4079 18.5193 13.8619 18.3293 13.5394 18.0111C13.3841 17.8577 13.3826 17.6081 13.5355 17.4532C13.6893 17.298 13.9389 17.2964 14.0934 17.4494C14.2248 17.5788 14.5407 17.7302 15 17.7302C15.4593 17.7302 15.7752 17.5788 15.9066 17.4494C16.0611 17.2964 16.3108 17.298 16.4645 17.4532C16.6174 17.6081 16.6159 17.8578 16.4606 18.0111C16.1382 18.3293 15.5922 18.5193 15 18.5193Z" fill="#A06E50"/>
<path d="M12.6331 15.7573C12.415 15.7573 12.2385 15.5808 12.2385 15.3628V14.9683C12.2385 14.7502 12.415 14.5737 12.6331 14.5737C12.8511 14.5737 13.0276 14.7502 13.0276 14.9683V15.3628C13.0276 15.5808 12.8511 15.7573 12.6331 15.7573Z" fill="url(#paint7_radial_7644_3699)"/>
<path d="M17.3674 15.7573C17.1493 15.7573 16.9729 15.5808 16.9729 15.3628V14.9683C16.9729 14.7502 17.1494 14.5737 17.3674 14.5737C17.5855 14.5737 17.762 14.7502 17.762 14.9683V15.3628C17.762 15.5808 17.5855 15.7573 17.3674 15.7573Z" fill="url(#paint8_radial_7644_3699)"/>
<path d="M13.0276 14.1797H12.2385C12.0204 14.1797 11.844 14.0032 11.844 13.7852C11.844 13.5671 12.0205 13.3906 12.2385 13.3906H13.0276C13.2457 13.3906 13.4221 13.5671 13.4221 13.7852C13.4221 14.0032 13.2456 14.1797 13.0276 14.1797Z" fill="url(#paint9_linear_7644_3699)"/>
<path d="M17.762 14.1797H16.9729C16.7548 14.1797 16.5784 14.0032 16.5784 13.7852C16.5784 13.5671 16.7549 13.3906 16.9729 13.3906H17.762C17.9801 13.3906 18.1565 13.5671 18.1565 13.7852C18.1565 14.0032 17.9801 14.1797 17.762 14.1797Z" fill="url(#paint10_linear_7644_3699)"/>
<path d="M8.81477 27.212L6.80094 25.4634C6.59459 25.6315 6.42122 25.8331 6.28271 26.058L8.2977 27.8077C8.55659 28.0327 8.70532 28.3586 8.70532 28.7015V30.3548H9.49438V28.7015C9.49443 28.1297 9.24671 27.5869 8.81477 27.212Z" fill="url(#paint11_linear_7644_3699)"/>
<path d="M21.2033 27.212L23.2171 25.4634C23.4235 25.6315 23.5968 25.8331 23.7353 26.058L21.7204 27.8077C21.4615 28.0327 21.3127 28.3586 21.3127 28.7015V30.3548H20.5237V28.7015C20.5236 28.1297 20.7713 27.5869 21.2033 27.212Z" fill="url(#paint12_linear_7644_3699)"/>
<path d="M24.1238 18.2398C23.7432 16.8993 24.1305 15.9839 23.68 14.5C23.2608 13.1191 22.4993 12.8859 22.2663 10.9245C21.8717 7.60388 18.288 5.89429 16.5126 5.89429C16.0106 5.89429 15.6678 6.0217 15.4373 6.17411C15.304 6.26235 15.1521 6.30644 15.0002 6.30644V9.83962C16.0194 11.1219 17.5318 10.1026 18.9456 12.3712C20.1472 14.2994 21.6561 14.2507 22.1869 15.7709C22.339 16.2066 22.2565 16.6721 22.2929 17.1322C22.4964 19.7029 24.469 20.8865 25.3558 23.5692C25.2712 23.1861 25.2178 22.7504 25.2253 22.2344C25.2581 19.9659 24.5019 19.5713 24.1238 18.2398Z" fill="url(#paint13_linear_7644_3699)"/>
<path d="M5.87647 18.2398C6.2571 16.8993 5.86983 15.9839 6.32031 14.5C6.73949 13.1191 7.50103 12.8859 7.73403 10.9245C8.12861 7.60388 11.7123 5.89429 13.4877 5.89429C13.9897 5.89429 14.3325 6.0217 14.563 6.17411C14.6963 6.26235 14.8482 6.30644 15.0001 6.30644V9.83962C13.9809 11.1219 12.4685 10.1026 11.0547 12.3712C9.85307 14.2994 8.34418 14.2507 7.81339 15.7709C7.66127 16.2066 7.74378 16.6721 7.70738 17.1322C7.50395 19.7029 5.53129 20.8865 4.64453 23.5692C4.72909 23.1861 4.78255 22.7504 4.77505 22.2344C4.74218 19.9659 5.49838 19.5713 5.87647 18.2398Z" fill="url(#paint14_linear_7644_3699)"/>
</g>
<defs>
<linearGradient id="paint0_linear_7644_3699" x1="15.0001" y1="5.89429" x2="15.0001" y2="29.5661" gradientUnits="userSpaceOnUse">
<stop stop-color="#33282D"/>
<stop offset="1" stop-color="#6E5561"/>
</linearGradient>
<linearGradient id="paint1_linear_7644_3699" x1="9.37515" y1="5.89429" x2="9.37515" y2="29.5661" gradientUnits="userSpaceOnUse">
<stop stop-color="#1A1417"/>
<stop offset="1" stop-color="#5A4650"/>
</linearGradient>
<linearGradient id="paint2_linear_7644_3699" x1="11.4355" y1="23.6346" x2="16.0213" y2="29.5092" gradientUnits="userSpaceOnUse">
<stop stop-color="#D4A06C"/>
<stop offset="1" stop-color="#FABD80"/>
</linearGradient>
<linearGradient id="paint3_linear_7644_3699" x1="8.74988" y1="24.6873" x2="20.9374" y2="29.3749" gradientUnits="userSpaceOnUse">
<stop stop-color="#ACED8E"/>
<stop offset="1" stop-color="#A6FFAA"/>
</linearGradient>
<linearGradient id="paint4_linear_7644_3699" x1="12.7847" y1="20.3222" x2="14.0009" y2="22.807" gradientUnits="userSpaceOnUse">
<stop stop-color="#C58646"/>
<stop offset="1" stop-color="#C68748" stop-opacity="0.06"/>
</linearGradient>
<linearGradient id="paint5_linear_7644_3699" x1="10.3847" y1="10.3965" x2="20.0725" y2="15.9065" gradientUnits="userSpaceOnUse">
<stop stop-color="#EDB379"/>
<stop offset="1" stop-color="#FFC182"/>
</linearGradient>
<linearGradient id="paint6_linear_7644_3699" x1="10.2002" y1="10.7346" x2="16.5034" y2="13.6327" gradientUnits="userSpaceOnUse">
<stop stop-color="#C58646"/>
<stop offset="1" stop-color="#C68748" stop-opacity="0.06"/>
</linearGradient>
<radialGradient id="paint7_radial_7644_3699" cx="0" cy="0" r="1" gradientUnits="userSpaceOnUse" gradientTransform="translate(12.4759 14.9277) rotate(71.565) scale(0.998025 0.665353)">
<stop stop-color="#040404"/>
<stop offset="1" stop-color="#767676"/>
</radialGradient>
<radialGradient id="paint8_radial_7644_3699" cx="0" cy="0" r="1" gradientUnits="userSpaceOnUse" gradientTransform="translate(17.2103 14.9277) rotate(71.565) scale(0.998025 0.665353)">
<stop stop-color="#040404"/>
<stop offset="1" stop-color="#767676"/>
</radialGradient>
<linearGradient id="paint9_linear_7644_3699" x1="11.9469" y1="13.5935" x2="12.1073" y2="14.4125" gradientUnits="userSpaceOnUse">
<stop stop-color="#403239"/>
<stop offset="1" stop-color="#806371"/>
</linearGradient>
<linearGradient id="paint10_linear_7644_3699" x1="16.6813" y1="13.5935" x2="16.8417" y2="14.4125" gradientUnits="userSpaceOnUse">
<stop stop-color="#403239"/>
<stop offset="1" stop-color="#806371"/>
</linearGradient>
<linearGradient id="paint11_linear_7644_3699" x1="7.81252" y1="24.9994" x2="7.88855" y2="30.3548" gradientUnits="userSpaceOnUse">
<stop stop-color="#87BA70"/>
<stop offset="1" stop-color="#87BA70" stop-opacity="0"/>
</linearGradient>
<linearGradient id="paint12_linear_7644_3699" x1="22.1875" y1="24.9994" x2="22.1295" y2="30.3548" gradientUnits="userSpaceOnUse">
<stop stop-color="#86C985"/>
<stop offset="1" stop-color="#86C985" stop-opacity="0"/>
</linearGradient>
<linearGradient id="paint13_linear_7644_3699" x1="15.9376" y1="6.24981" x2="25" y2="23.1248" gradientUnits="userSpaceOnUse">
<stop stop-color="#5C4B53"/>
<stop offset="1" stop-color="#7A646F"/>
</linearGradient>
<linearGradient id="paint14_linear_7644_3699" x1="11.5624" y1="5.93732" x2="4.6875" y2="26.5622" gradientUnits="userSpaceOnUse">
<stop offset="0.00373261" stop-color="#4A3B43"/>
<stop offset="1" stop-color="#826875"/>
</linearGradient>
</defs>
</svg>
