<svg width="30" height="30" viewBox="0 0 30 30" fill="none" xmlns="http://www.w3.org/2000/svg">
<ellipse cx="15" cy="15" rx="15" ry="15" fill="#B8A4FC"/>
<ellipse cx="15" cy="15" rx="15" ry="15" fill="url(#paint0_radial_7623_4828)"/>
<mask id="mask0_7623_4828" style="mask-type:alpha" maskUnits="userSpaceOnUse" x="0" y="0" width="30" height="30">
<ellipse cx="15" cy="15" rx="15" ry="15" fill="#C4C4C4"/>
</mask>
<g mask="url(#mask0_7623_4828)">
<path d="M22.6924 24.0435L18.5752 22.8325C18.0765 22.6859 17.734 22.2281 17.734 21.7082V19.8506H12.2649V21.7082C12.2649 22.2281 11.9224 22.6858 11.4236 22.8325L7.30644 24.0435C6.30894 24.3369 5.6239 25.2523 5.6239 26.2921V29.2261C5.6239 29.8733 6.14859 30.398 6.79585 30.398H23.203C23.8503 30.398 24.375 29.8733 24.375 29.2261V26.2921C24.375 25.2523 23.69 24.3369 22.6924 24.0435Z" fill="#E3AA75"/>
<path d="M22.6924 24.0436L18.5752 22.8327C18.5056 22.8122 18.4399 22.7844 18.3769 22.7524L14.9992 23.3665L11.622 22.7524C11.559 22.7844 11.4933 22.8122 11.4236 22.8327L7.30644 24.0436C6.3089 24.337 5.6239 25.2525 5.6239 26.2923V29.2263C5.6239 29.8735 6.14859 30.3982 6.79585 30.3982H23.203C23.8503 30.3982 24.375 29.8735 24.375 29.2262V26.2922C24.375 25.2525 23.69 24.337 22.6924 24.0436Z" fill="url(#paint1_linear_7623_4828)"/>
<path d="M10.3792 23.7279L12.3148 25.387C12.5978 25.6296 12.9588 25.7632 13.3313 25.7632C13.8088 25.7632 14.2537 25.5495 14.5519 25.1768L14.9995 24.6172L15.4471 25.1767C15.7452 25.5495 16.1901 25.7632 16.6677 25.7632C17.0402 25.7632 17.4011 25.6296 17.6842 25.387L19.6198 23.7279C19.7768 23.5933 19.8849 23.4216 19.9455 23.2357L18.5753 22.8327C18.5057 22.8122 18.44 22.7844 18.377 22.7524L14.9993 23.3665L11.622 22.7524C11.559 22.7844 11.4933 22.8122 11.4237 22.8327L10.0535 23.2357C10.1141 23.4216 10.2222 23.5934 10.3792 23.7279Z" fill="url(#paint2_linear_7623_4828)"/>
<path d="M12.265 20.7223C13.0857 21.1607 14.0164 21.4132 14.9995 21.4132C15.9826 21.4132 16.9133 21.1607 17.734 20.7223V19.8506H12.265V20.7223Z" fill="#D29B6E"/>
<path d="M20.2732 13.9907H20.0779V9.6936H9.92109V13.9907H9.72577C9.1864 13.9907 8.74915 14.4279 8.74915 14.9673C8.74915 15.5067 9.1864 15.9439 9.72577 15.9439H9.94082C10.1409 18.5655 12.3267 20.6317 14.9995 20.6317C17.6723 20.6317 19.8581 18.5655 20.0582 15.9439H20.2732C20.8126 15.9439 21.2498 15.5067 21.2498 14.9673C21.2498 14.428 20.8126 13.9907 20.2732 13.9907Z" fill="url(#paint3_linear_7623_4828)"/>
<path d="M18.5153 10.4749V9.6936H9.92105V13.9907H9.78148C9.27061 13.9907 8.8051 14.3582 8.75421 14.8665C8.69564 15.4511 9.15315 15.9439 9.72578 15.9439H9.94083C10.1409 18.5655 12.3267 20.6316 14.9995 20.6316C15.2667 20.6316 15.5273 20.6056 15.7832 20.5658C13.3492 20.1901 11.4837 18.0924 11.4837 15.5532V12.8187C11.4837 11.9557 12.1832 11.2561 13.0462 11.2561H17.734C18.1655 11.2562 18.5153 10.9064 18.5153 10.4749Z" fill="url(#paint4_linear_7623_4828)"/>
<path d="M14.9995 23.3659L11.8403 21.6108C11.6459 21.5028 11.4007 21.5786 11.3012 21.7776L10.8115 22.757C10.7473 22.8853 10.7787 23.0407 10.8876 23.134L12.8232 24.7931C13.1587 25.0807 13.6657 25.033 13.9417 24.688L14.9995 23.3659Z" fill="url(#paint5_linear_7623_4828)"/>
<path d="M14.9995 23.3659L18.1586 21.6108C18.353 21.5028 18.5983 21.5786 18.6978 21.7776L19.1875 22.757C19.2516 22.8853 19.2202 23.0407 19.1113 23.134L17.1757 24.7931C16.8402 25.0807 16.3332 25.033 16.0572 24.688L14.9995 23.3659Z" fill="url(#paint6_linear_7623_4828)"/>
<path d="M12.6556 15.1961C12.4397 15.1961 12.265 15.0212 12.265 14.8055V14.4148C12.265 14.1991 12.4397 14.0242 12.6556 14.0242C12.8715 14.0242 13.0463 14.1991 13.0463 14.4148V14.8055C13.0463 15.0212 12.8716 15.1961 12.6556 15.1961Z" fill="url(#paint7_radial_7623_4828)"/>
<path d="M17.3434 15.1961C17.1275 15.1961 16.9528 15.0212 16.9528 14.8055V14.4148C16.9528 14.1991 17.1275 14.0242 17.3434 14.0242C17.5593 14.0242 17.7341 14.1991 17.7341 14.4148V14.8055C17.7341 15.0212 17.5593 15.1961 17.3434 15.1961Z" fill="url(#paint8_radial_7623_4828)"/>
<path d="M13.0462 13.6001H12.2649C12.049 13.6001 11.8743 13.4252 11.8743 13.2095C11.8743 12.9938 12.049 12.8188 12.2649 12.8188H13.0462C13.2621 12.8188 13.4369 12.9938 13.4369 13.2095C13.4369 13.4252 13.2622 13.6001 13.0462 13.6001Z" fill="url(#paint9_linear_7623_4828)"/>
<path d="M17.734 13.6001H16.9527C16.7368 13.6001 16.5621 13.4252 16.5621 13.2095C16.5621 12.9938 16.7368 12.8188 16.9527 12.8188H17.734C17.9499 12.8188 18.1247 12.9938 18.1247 13.2095C18.1247 13.4252 17.9499 13.6001 17.734 13.6001Z" fill="url(#paint10_linear_7623_4828)"/>
<path d="M13.455 16.5627C13.3321 16.5627 13.2407 16.6752 13.2611 16.7964C13.388 17.5486 14.118 18.1253 14.9995 18.1253C15.881 18.1253 16.611 17.5486 16.7379 16.7964C16.7583 16.6752 16.6669 16.5627 16.5439 16.5627H13.455Z" fill="white"/>
<path d="M14.9995 26.8819C15.2152 26.8819 15.3901 26.707 15.3901 26.4912C15.3901 26.2755 15.2152 26.1006 14.9995 26.1006C14.7837 26.1006 14.6088 26.2755 14.6088 26.4912C14.6088 26.707 14.7837 26.8819 14.9995 26.8819Z" fill="url(#paint11_radial_7623_4828)"/>
<path d="M14.9995 29.2259C15.2152 29.2259 15.3901 29.051 15.3901 28.8352C15.3901 28.6195 15.2152 28.4446 14.9995 28.4446C14.7837 28.4446 14.6088 28.6195 14.6088 28.8352C14.6088 29.051 14.7837 29.2259 14.9995 29.2259Z" fill="url(#paint12_radial_7623_4828)"/>
<path d="M19.3764 8.91187H10.6226C9.42981 8.91187 8.51556 9.97159 8.69045 11.1514L9.1398 14.1833L10.0169 14.0749C10.4083 14.0266 10.7024 13.694 10.7024 13.2995V11.2557C10.7024 10.8242 11.0522 10.4744 11.4837 10.4744H18.5153C18.9468 10.4744 19.2966 10.8242 19.2966 11.2557V13.2995C19.2966 13.694 19.5907 14.0266 19.9822 14.0749L20.8592 14.1832L21.3086 11.1514C21.4834 9.97154 20.5692 8.91187 19.3764 8.91187Z" fill="url(#paint13_linear_7623_4828)"/>
<path d="M20.2613 6.2754C20.1862 6.04277 19.916 5.92983 19.7025 6.04892C19.2956 6.27602 18.539 6.5688 17.3433 6.5688H13.4368C11.9266 6.5688 10.7023 7.79307 10.7023 9.30334C10.7023 9.95059 11.227 10.4753 11.8742 10.4753H18.1246C19.5926 10.4753 21.0606 8.75144 20.2613 6.2754Z" fill="url(#paint14_linear_7623_4828)"/>
<path d="M9.13978 26.8821V30.3979H7.96783V28.054C7.96783 27.4068 8.49253 26.8821 9.13978 26.8821Z" fill="url(#paint15_linear_7623_4828)"/>
<path d="M20.8592 26.8821V30.3979H22.0311V28.054C22.0311 27.4068 21.5064 26.8821 20.8592 26.8821Z" fill="url(#paint16_linear_7623_4828)"/>
<path d="M9.13977 30.3981H10.7024V23.0447L9.13977 23.5043V30.3981Z" fill="url(#paint17_linear_7623_4828)"/>
<path d="M20.8592 30.3981H19.2966V23.0447L20.8592 23.5043V30.3981Z" fill="url(#paint18_linear_7623_4828)"/>
<path d="M9.13977 30.3979H9.92107V27.6634C9.92107 27.2319 9.57126 26.8821 9.13977 26.8821V30.3979V30.3979Z" fill="#FFD164"/>
<path d="M20.8592 30.3979H20.0779V27.6634C20.0779 27.2319 20.4277 26.8821 20.8592 26.8821V30.3979Z" fill="#FFD164"/>
<path d="M13.0278 7.93023C13.0337 8.48413 13.5243 8.91233 14.0782 8.91233H19.3764C19.6575 8.91233 19.9222 8.97295 20.1617 9.0784C20.5176 8.35605 20.6226 7.39324 20.2608 6.27352C20.186 6.04203 19.916 5.92933 19.7036 6.04799C19.2969 6.27519 18.5401 6.56849 17.3433 6.56849H13.4368C13.4124 6.58283 13.3848 6.59903 13.3604 6.61337C13.1492 7.00121 13.0276 7.4449 13.0276 7.91765C13.0277 7.9218 13.0277 7.92599 13.0278 7.93023Z" fill="url(#paint19_linear_7623_4828)"/>
</g>
<defs>
<radialGradient id="paint0_radial_7623_4828" cx="0" cy="0" r="1" gradientUnits="userSpaceOnUse" gradientTransform="translate(5.9375 3.4375) rotate(51.809) scale(29.8204 29.8204)">
<stop offset="0.492268" stop-color="#B8A4FC"/>
<stop offset="1" stop-color="#B859E4"/>
</radialGradient>
<linearGradient id="paint1_linear_7623_4828" x1="14.9994" y1="22.7524" x2="14.9994" y2="30.3982" gradientUnits="userSpaceOnUse">
<stop stop-color="#FF414F"/>
<stop offset="1" stop-color="#FF7456"/>
</linearGradient>
<linearGradient id="paint2_linear_7623_4828" x1="14.9995" y1="22.7524" x2="14.9995" y2="25.7632" gradientUnits="userSpaceOnUse">
<stop stop-color="#B33639"/>
<stop offset="1" stop-color="#E64549"/>
</linearGradient>
<linearGradient id="paint3_linear_7623_4828" x1="9.37501" y1="10.9377" x2="19.375" y2="18.4377" gradientUnits="userSpaceOnUse">
<stop stop-color="#EDB379"/>
<stop offset="1" stop-color="#FFC182"/>
</linearGradient>
<linearGradient id="paint4_linear_7623_4828" x1="9.06248" y1="11.2502" x2="15" y2="14.0627" gradientUnits="userSpaceOnUse">
<stop stop-color="#C58646"/>
<stop offset="1" stop-color="#C68748" stop-opacity="0.06"/>
</linearGradient>
<linearGradient id="paint5_linear_7623_4828" x1="12.889" y1="21.5615" x2="12.889" y2="24.9812" gradientUnits="userSpaceOnUse">
<stop stop-color="#FF414F"/>
<stop offset="1" stop-color="#FF7456"/>
</linearGradient>
<linearGradient id="paint6_linear_7623_4828" x1="17.11" y1="21.5615" x2="17.11" y2="24.9812" gradientUnits="userSpaceOnUse">
<stop stop-color="#FF414F"/>
<stop offset="1" stop-color="#FF7456"/>
</linearGradient>
<radialGradient id="paint7_radial_7623_4828" cx="0" cy="0" r="1" gradientUnits="userSpaceOnUse" gradientTransform="translate(12.5 14.3747) rotate(71.5651) scale(0.988212 0.658807)">
<stop stop-color="#040404"/>
<stop offset="1" stop-color="#767676"/>
</radialGradient>
<radialGradient id="paint8_radial_7623_4828" cx="0" cy="0" r="1" gradientUnits="userSpaceOnUse" gradientTransform="translate(17.1878 14.3747) rotate(71.565) scale(0.988211 0.658807)">
<stop stop-color="#040404"/>
<stop offset="1" stop-color="#767676"/>
</radialGradient>
<linearGradient id="paint9_linear_7623_4828" x1="12.8125" y1="12.8127" x2="12.8125" y2="13.7502" gradientUnits="userSpaceOnUse">
<stop stop-color="#332A2E"/>
<stop offset="1" stop-color="#6E5A64"/>
</linearGradient>
<linearGradient id="paint10_linear_7623_4828" x1="17.5003" y1="12.8127" x2="17.5003" y2="13.7502" gradientUnits="userSpaceOnUse">
<stop stop-color="#332A2E"/>
<stop offset="1" stop-color="#6E5A64"/>
</linearGradient>
<radialGradient id="paint11_radial_7623_4828" cx="0" cy="0" r="1" gradientUnits="userSpaceOnUse" gradientTransform="translate(15 25.9375) rotate(90.0312) scale(0.944414)">
<stop stop-color="#FFC350"/>
<stop offset="1" stop-color="#FFD179" stop-opacity="0.97"/>
</radialGradient>
<radialGradient id="paint12_radial_7623_4828" cx="0" cy="0" r="1" gradientUnits="userSpaceOnUse" gradientTransform="translate(15 28.2815) rotate(90.0312) scale(0.944416 0.944415)">
<stop stop-color="#FFC350"/>
<stop offset="1" stop-color="#FFD179" stop-opacity="0.97"/>
</radialGradient>
<linearGradient id="paint13_linear_7623_4828" x1="14.9995" y1="8.91187" x2="14.9995" y2="14.1833" gradientUnits="userSpaceOnUse">
<stop stop-color="#362A30"/>
<stop offset="1" stop-color="#826574"/>
</linearGradient>
<linearGradient id="paint14_linear_7623_4828" x1="10.9375" y1="9.06296" x2="20.625" y2="6.87546" gradientUnits="userSpaceOnUse">
<stop stop-color="#64505A"/>
<stop offset="1" stop-color="#78606C"/>
</linearGradient>
<linearGradient id="paint15_linear_7623_4828" x1="8.55381" y1="26.8821" x2="8.55381" y2="30.3979" gradientUnits="userSpaceOnUse">
<stop stop-color="#B33639"/>
<stop offset="1" stop-color="#E64549"/>
</linearGradient>
<linearGradient id="paint16_linear_7623_4828" x1="21.4452" y1="26.8821" x2="21.4452" y2="30.3979" gradientUnits="userSpaceOnUse">
<stop stop-color="#B33639"/>
<stop offset="1" stop-color="#E64549"/>
</linearGradient>
<linearGradient id="paint17_linear_7623_4828" x1="9.92107" y1="23.0447" x2="9.92107" y2="30.3981" gradientUnits="userSpaceOnUse">
<stop stop-color="#FFCA62"/>
<stop offset="1" stop-color="#FFCA62" stop-opacity="0.38"/>
</linearGradient>
<linearGradient id="paint18_linear_7623_4828" x1="20.0779" y1="23.0447" x2="20.0779" y2="30.3981" gradientUnits="userSpaceOnUse">
<stop stop-color="#FFCA62"/>
<stop offset="1" stop-color="#FFCA62" stop-opacity="0.38"/>
</linearGradient>
<linearGradient id="paint19_linear_7623_4828" x1="13.125" y1="8.43768" x2="20.3125" y2="6.25018" gradientUnits="userSpaceOnUse">
<stop stop-color="#7A646F"/>
<stop offset="1" stop-color="#6E5A64"/>
</linearGradient>
</defs>
</svg>
