<svg width="30" height="30" viewBox="0 0 30 30" fill="none" xmlns="http://www.w3.org/2000/svg">
<rect width="30" height="29.9998" fill="white"/>
<ellipse cx="15" cy="14.9999" rx="15" ry="14.9999" fill="#AFFAAF"/>
<ellipse cx="15" cy="14.9999" rx="15" ry="14.9999" fill="url(#paint0_radial_7623_4848)"/>
<mask id="mask0_7623_4848" style="mask-type:alpha" maskUnits="userSpaceOnUse" x="0" y="0" width="30" height="30">
<ellipse cx="15" cy="14.9999" rx="15" ry="14.9999" fill="#C4C4C4"/>
</mask>
<g mask="url(#mask0_7623_4848)">
<path d="M14.9997 6.33154C12.2682 6.33154 10.0539 7.18318 10.0539 8.23375V10.136H19.9455V8.23375C19.9455 7.18318 17.7312 6.33154 14.9997 6.33154Z" fill="url(#paint1_linear_7623_4848)"/>
<path d="M14.9996 18.5056C19.412 18.5056 22.989 16.2912 22.989 13.5595C22.989 10.8279 19.412 8.61353 14.9996 8.61353C10.5872 8.61353 7.01019 10.8279 7.01019 13.5595C7.01019 16.2912 10.5872 18.5056 14.9996 18.5056Z" fill="url(#paint2_linear_7623_4848)"/>
<path d="M22.0192 22.5747C21.794 21.976 21.4673 20.893 21.4673 19.6466C21.4673 17.9346 21.4673 13.5595 21.4673 13.5595C21.4673 11.6685 18.5717 10.1355 14.9997 10.1355C11.4278 10.1355 8.53215 11.6685 8.53215 13.5595C8.53215 13.5595 8.53215 17.9346 8.53215 19.6466C8.53215 20.893 8.20552 21.976 7.98028 22.5747C7.85967 22.8952 7.96333 23.2528 8.23781 23.4577C8.67999 23.7877 9.44092 24.2781 10.5392 24.7239C13.3906 25.8814 16.609 25.8814 19.4603 24.7239C20.5586 24.2781 21.3195 23.7877 21.7617 23.4577C22.0362 23.2528 22.1399 22.8952 22.0192 22.5747Z" fill="url(#paint3_linear_7623_4848)"/>
<path d="M22.227 25.5771L18.2977 24.1903C17.6893 23.9756 17.2824 23.4005 17.2824 22.7553V20.408H12.717V22.7553C12.717 23.4005 12.3101 23.9756 11.7017 24.1903L7.77238 25.5771C6.85974 25.8993 6.24945 26.7619 6.24945 27.7296V28.7777C6.24945 29.408 6.76046 29.919 7.39078 29.919H22.6087C23.239 29.919 23.75 29.408 23.75 28.7777V27.7296C23.75 26.7619 23.1397 25.8993 22.227 25.5771Z" fill="url(#paint4_linear_7623_4848)"/>
<path d="M12.7171 21.8234C13.3361 22.0991 14.0112 22.2701 14.7249 22.3037C14.817 22.308 14.9087 22.3102 14.9998 22.3102C15.8115 22.3102 16.5827 22.1372 17.2825 21.8304V20.408H12.7171V21.8234Z" fill="url(#paint5_linear_7623_4848)"/>
<path d="M18.4237 13.5591H17.8204C17.7195 13.5591 17.6227 13.519 17.5514 13.4477L16.1503 12.0466C16.0065 11.9028 15.7606 12.0046 15.7606 12.208V13.1787C15.7606 13.3888 15.5903 13.5591 15.3802 13.5591H11.5757C10.7352 13.5591 10.0539 14.2404 10.0539 15.0809V16.463C10.0539 19.1261 12.1004 21.4175 14.7606 21.5428C17.6008 21.6765 19.9455 19.4134 19.9455 16.6027V15.0809C19.9455 14.2404 19.2642 13.5591 18.4237 13.5591Z" fill="url(#paint6_linear_7623_4848)"/>
<path d="M18.4237 13.5591H17.8205C17.7196 13.5591 17.6228 13.519 17.5514 13.4477L16.1503 12.0466C16.0065 11.9028 15.7606 12.0046 15.7606 12.208V13.1787C15.7606 13.3888 15.5903 13.5592 15.3802 13.5592H11.5757C10.7352 13.5592 10.0539 14.2405 10.0539 15.0809V16.4502C10.0539 18.6837 11.4739 20.7264 13.6183 21.3513C14.3626 21.5682 15.0836 21.5932 15.7614 21.4884C13.3599 21.1102 11.5757 18.9492 11.5757 16.463V15.8419C11.5757 15.0014 12.257 14.3201 13.0975 14.3201H17.6629C18.0831 14.32 18.4237 13.9794 18.4237 13.5591Z" fill="url(#paint7_linear_7623_4848)"/>
<path d="M12.7172 16.6032C12.5069 16.6032 12.3367 16.4329 12.3367 16.2228V15.8424C12.3367 15.6323 12.5069 15.4619 12.7172 15.4619C12.9274 15.4619 13.0976 15.6323 13.0976 15.8424V16.2228C13.0976 16.4329 12.9274 16.6032 12.7172 16.6032Z" fill="url(#paint8_radial_7623_4848)"/>
<path d="M17.2823 16.6032C17.072 16.6032 16.9019 16.4329 16.9019 16.2228V15.8424C16.9019 15.6323 17.072 15.4619 17.2823 15.4619C17.4926 15.4619 17.6627 15.6323 17.6627 15.8424V16.2228C17.6627 16.4329 17.4926 16.6032 17.2823 16.6032Z" fill="url(#paint9_radial_7623_4848)"/>
<path d="M14.9997 19.2658C14.429 19.2658 13.9021 19.0826 13.5912 18.7757C13.4414 18.6282 13.44 18.3873 13.5874 18.2378C13.7349 18.0882 13.9764 18.0866 14.1254 18.2341C14.2521 18.3591 14.5571 18.5049 14.9996 18.5049C15.4421 18.5049 15.7471 18.3591 15.8738 18.2341C16.0228 18.0865 16.2643 18.0882 16.4118 18.2378C16.5593 18.3873 16.5578 18.6283 16.4081 18.7757C16.0972 19.0826 15.5703 19.2658 14.9997 19.2658Z" fill="#E3AA75"/>
<path d="M12.3361 15.1291C12.1611 15.1291 12.0035 15.0078 11.9649 14.83C11.92 14.6247 12.05 14.4219 12.2551 14.3769L13.016 14.2104C13.2207 14.1659 13.4243 14.2954 13.4689 14.5008C13.5139 14.7061 13.3838 14.9089 13.1787 14.9539L12.4179 15.1203C12.3904 15.1263 12.3632 15.1291 12.3361 15.1291Z" fill="url(#paint10_linear_7623_4848)"/>
<path d="M17.6633 15.1289C17.6361 15.1289 17.609 15.1262 17.5815 15.1202L16.8206 14.9537C16.6155 14.9088 16.4855 14.7059 16.5305 14.5006C16.5751 14.2952 16.7783 14.1654 16.9834 14.2103L17.7443 14.3768C17.9494 14.4217 18.0794 14.6246 18.0344 14.8299C17.9957 15.0076 17.8382 15.1289 17.6633 15.1289Z" fill="url(#paint11_linear_7623_4848)"/>
<path d="M22.227 25.5773L20.0325 24.8027C19.3132 26.8931 17.3342 28.3974 14.9997 28.3974C12.6652 28.3974 10.6862 26.8931 9.96696 24.8027L7.77238 25.5773C6.85974 25.8994 6.24945 26.762 6.24945 27.7298V28.7779C6.24945 29.4082 6.76046 29.9192 7.39078 29.9192H22.6087C23.239 29.9192 23.75 29.4082 23.75 28.7779V27.7298C23.75 26.762 23.1397 25.8994 22.227 25.5773Z" fill="url(#paint12_linear_7623_4848)"/>
<path d="M9.25006 25.0557C10.0738 27.4418 12.3337 29.1583 14.9997 29.1583C17.6657 29.1583 19.9256 27.4417 20.7493 25.0557L20.0325 24.8027C19.3132 26.8931 17.3342 28.3974 14.9997 28.3974C12.6652 28.3974 10.6862 26.8931 9.96695 24.8027L9.25006 25.0557Z" fill="url(#paint13_linear_7623_4848)"/>
<path d="M14.9996 11.0381C18.5716 11.0381 21.4672 12.5711 21.4672 14.4621C21.4672 13.915 21.4672 13.5595 21.4672 13.5595C21.4672 11.6685 18.5716 10.1355 14.9996 10.1355C11.4277 10.1355 8.53204 11.6685 8.53204 13.5595C8.53204 13.5595 8.53204 13.915 8.53204 14.4621C8.53204 12.5711 11.4277 11.0381 14.9996 11.0381Z" fill="url(#paint14_linear_7623_4848)"/>
</g>
<defs>
<radialGradient id="paint0_radial_7623_4848" cx="0" cy="0" r="1" gradientUnits="userSpaceOnUse" gradientTransform="translate(3.4375 5.31247) rotate(45.8549) scale(29.6133 29.6133)">
<stop offset="0.408481" stop-color="#D9FAAF"/>
<stop offset="1" stop-color="#90F0A0"/>
</radialGradient>
<linearGradient id="paint1_linear_7623_4848" x1="10.625" y1="7.18786" x2="20.3124" y2="10.0004" gradientUnits="userSpaceOnUse">
<stop stop-color="#FFD54A"/>
<stop offset="1" stop-color="#FFE17D"/>
</linearGradient>
<linearGradient id="paint2_linear_7623_4848" x1="7.18739" y1="12.1874" x2="23.1249" y2="14.9999" gradientUnits="userSpaceOnUse">
<stop stop-color="#FFC230"/>
<stop offset="1" stop-color="#FFD164"/>
</linearGradient>
<linearGradient id="paint3_linear_7623_4848" x1="10.625" y1="10.9373" x2="19.9999" y2="25.6248" gradientUnits="userSpaceOnUse">
<stop stop-color="#B06438"/>
<stop offset="1" stop-color="#B67F5F"/>
</linearGradient>
<linearGradient id="paint4_linear_7623_4848" x1="7.25972" y1="21.5462" x2="13.372" y2="33.3331" gradientUnits="userSpaceOnUse">
<stop stop-color="#F5D89A"/>
<stop offset="1" stop-color="#FFE3A6"/>
</linearGradient>
<linearGradient id="paint5_linear_7623_4848" x1="12.8125" y1="21.2502" x2="14.5092" y2="23.9016" gradientUnits="userSpaceOnUse">
<stop stop-color="#EDBF6D"/>
<stop offset="1" stop-color="#F2CC88" stop-opacity="0"/>
</linearGradient>
<linearGradient id="paint6_linear_7623_4848" x1="10.6249" y1="13.1244" x2="18.1249" y2="21.2494" gradientUnits="userSpaceOnUse">
<stop stop-color="#F5D89A"/>
<stop offset="1" stop-color="#FFE3A6"/>
</linearGradient>
<linearGradient id="paint7_linear_7623_4848" x1="9.99995" y1="13.4369" x2="14.6874" y2="21.8744" gradientUnits="userSpaceOnUse">
<stop stop-color="#EDBF6D"/>
<stop offset="1" stop-color="#F2CC88" stop-opacity="0"/>
</linearGradient>
<radialGradient id="paint8_radial_7623_4848" cx="0" cy="0" r="1" gradientUnits="userSpaceOnUse" gradientTransform="translate(12.5657 15.8033) rotate(71.5649) scale(0.962391 0.641597)">
<stop stop-color="#040404"/>
<stop offset="1" stop-color="#767676"/>
</radialGradient>
<radialGradient id="paint9_radial_7623_4848" cx="0" cy="0" r="1" gradientUnits="userSpaceOnUse" gradientTransform="translate(17.1308 15.8033) rotate(71.565) scale(0.962391 0.641596)">
<stop stop-color="#040404"/>
<stop offset="1" stop-color="#767676"/>
</radialGradient>
<linearGradient id="paint10_linear_7623_4848" x1="12.1874" y1="14.375" x2="12.7169" y2="15.1291" gradientUnits="userSpaceOnUse">
<stop stop-color="#99694D"/>
<stop offset="1" stop-color="#A06E50" stop-opacity="0.59"/>
</linearGradient>
<linearGradient id="paint11_linear_7623_4848" x1="16.7529" y1="14.3748" x2="17.2825" y2="15.1289" gradientUnits="userSpaceOnUse">
<stop stop-color="#99694D"/>
<stop offset="1" stop-color="#A06E50" stop-opacity="0.59"/>
</linearGradient>
<linearGradient id="paint12_linear_7623_4848" x1="9.06249" y1="25.3128" x2="22.1875" y2="28.4378" gradientUnits="userSpaceOnUse">
<stop stop-color="#BCB9BD"/>
<stop offset="1" stop-color="#D5D2D6"/>
</linearGradient>
<linearGradient id="paint13_linear_7623_4848" x1="9.68745" y1="25.3128" x2="20.9374" y2="27.5003" gradientUnits="userSpaceOnUse">
<stop stop-color="#AAA5AB"/>
<stop offset="1" stop-color="#C8C3C9"/>
</linearGradient>
<linearGradient id="paint14_linear_7623_4848" x1="9.9999" y1="10.9373" x2="20.3124" y2="12.8124" gradientUnits="userSpaceOnUse">
<stop stop-color="#A05A30"/>
<stop offset="1" stop-color="#A05A30" stop-opacity="0"/>
</linearGradient>
</defs>
</svg>
